<svg width="136" height="104" viewBox="0 0 136 104" fill="none" xmlns="http://www.w3.org/2000/svg">
<rect width="8" height="8" fill="#01448C"/>
<rect x="16" width="8" height="8" fill="#01448C"/>
<rect x="32" width="8" height="8" fill="#01448C"/>
<rect x="48" width="8" height="8" fill="#01448C"/>
<rect x="64" width="8" height="8" fill="#01448C"/>
<rect x="80" width="8" height="8" fill="#01448C"/>
<rect x="96" width="8" height="8" fill="#01448C"/>
<rect x="112" width="8" height="8" fill="#01448C"/>
<rect x="128" width="8" height="8" fill="#01448C"/>
<rect y="24" width="8" height="8" fill="#01448C"/>
<rect x="16" y="24" width="8" height="8" fill="#01448C"/>
<rect x="32" y="24" width="8" height="8" fill="#01448C"/>
<rect x="48" y="24" width="8" height="8" fill="#01448C"/>
<rect x="64" y="24" width="8" height="8" fill="#01448C"/>
<rect x="80" y="24" width="8" height="8" fill="#01448C"/>
<rect x="96" y="24" width="8" height="8" fill="#01448C"/>
<rect x="112" y="24" width="8" height="8" fill="#01448C"/>
<rect x="128" y="24" width="8" height="8" fill="#01448C"/>
<rect y="48" width="8" height="8" fill="#01448C"/>
<rect x="16" y="48" width="8" height="8" fill="#01448C"/>
<rect x="32" y="48" width="8" height="8" fill="#01448C"/>
<rect x="48" y="48" width="8" height="8" fill="#01448C"/>
<rect x="64" y="48" width="8" height="8" fill="#01448C"/>
<rect x="80" y="48" width="8" height="8" fill="#01448C"/>
<rect x="96" y="48" width="8" height="8" fill="#01448C"/>
<rect x="112" y="48" width="8" height="8" fill="#01448C"/>
<rect x="128" y="48" width="8" height="8" fill="#01448C"/>
<rect y="72" width="8" height="8" fill="#01448C"/>
<rect x="16" y="72" width="8" height="8" fill="#01448C"/>
<rect x="32" y="72" width="8" height="8" fill="#01448C"/>
<rect x="48" y="72" width="8" height="8" fill="#01448C"/>
<rect x="64" y="72" width="8" height="8" fill="#01448C"/>
<rect x="80" y="72" width="8" height="8" fill="#01448C"/>
<rect x="96" y="72" width="8" height="8" fill="#01448C"/>
<rect x="112" y="72" width="8" height="8" fill="#01448C"/>
<rect x="128" y="72" width="8" height="8" fill="#01448C"/>
<rect y="96" width="8" height="8" fill="#01448C"/>
<rect x="16" y="96" width="8" height="8" fill="#01448C"/>
<rect x="32" y="96" width="8" height="8" fill="#01448C"/>
<rect x="48" y="96" width="8" height="8" fill="#01448C"/>
<rect x="64" y="96" width="8" height="8" fill="#01448C"/>
<rect x="80" y="96" width="8" height="8" fill="#01448C"/>
<rect x="96" y="96" width="8" height="8" fill="#01448C"/>
<rect x="112" y="96" width="8" height="8" fill="#01448C"/>
<rect x="128" y="96" width="8" height="8" fill="#01448C"/>
</svg>
