<svg width="80" height="136" viewBox="0 0 80 136" fill="none" xmlns="http://www.w3.org/2000/svg">
<rect y="136" width="8" height="8" transform="rotate(-90 0 136)" fill="#01448C"/>
<rect y="120" width="8" height="8" transform="rotate(-90 0 120)" fill="#01448C"/>
<rect y="104" width="8" height="8" transform="rotate(-90 0 104)" fill="#01448C"/>
<rect y="88" width="8" height="8" transform="rotate(-90 0 88)" fill="#01448C"/>
<rect y="72" width="8" height="8" transform="rotate(-90 0 72)" fill="#01448C"/>
<rect y="56" width="8" height="8" transform="rotate(-90 0 56)" fill="#01448C"/>
<rect y="40" width="8" height="8" transform="rotate(-90 0 40)" fill="#01448C"/>
<rect y="24" width="8" height="8" transform="rotate(-90 0 24)" fill="#01448C"/>
<rect y="8" width="8" height="8" transform="rotate(-90 0 8)" fill="#01448C"/>
<rect x="24" y="136" width="8" height="8" transform="rotate(-90 24 136)" fill="#01448C"/>
<rect x="24" y="120" width="8" height="8" transform="rotate(-90 24 120)" fill="#01448C"/>
<rect x="24" y="104" width="8" height="8" transform="rotate(-90 24 104)" fill="#01448C"/>
<rect x="24" y="88" width="8" height="8" transform="rotate(-90 24 88)" fill="#01448C"/>
<rect x="24" y="72" width="8" height="8" transform="rotate(-90 24 72)" fill="#01448C"/>
<rect x="24" y="56" width="8" height="8" transform="rotate(-90 24 56)" fill="#01448C"/>
<rect x="24" y="40" width="8" height="8" transform="rotate(-90 24 40)" fill="#01448C"/>
<rect x="24" y="24" width="8" height="8" transform="rotate(-90 24 24)" fill="#01448C"/>
<rect x="24" y="8" width="8" height="8" transform="rotate(-90 24 8)" fill="#01448C"/>
<rect x="48" y="136" width="8" height="8" transform="rotate(-90 48 136)" fill="#01448C"/>
<rect x="48" y="120" width="8" height="8" transform="rotate(-90 48 120)" fill="#01448C"/>
<rect x="48" y="104" width="8" height="8" transform="rotate(-90 48 104)" fill="#01448C"/>
<rect x="48" y="88" width="8" height="8" transform="rotate(-90 48 88)" fill="#01448C"/>
<rect x="48" y="72" width="8" height="8" transform="rotate(-90 48 72)" fill="#01448C"/>
<rect x="48" y="56" width="8" height="8" transform="rotate(-90 48 56)" fill="#01448C"/>
<rect x="48" y="40" width="8" height="8" transform="rotate(-90 48 40)" fill="#01448C"/>
<rect x="48" y="24" width="8" height="8" transform="rotate(-90 48 24)" fill="#01448C"/>
<rect x="48" y="8" width="8" height="8" transform="rotate(-90 48 8)" fill="#01448C"/>
<rect x="72" y="136" width="8" height="8" transform="rotate(-90 72 136)" fill="#01448C"/>
<rect x="72" y="120" width="8" height="8" transform="rotate(-90 72 120)" fill="#01448C"/>
<rect x="72" y="104" width="8" height="8" transform="rotate(-90 72 104)" fill="#01448C"/>
<rect x="72" y="88" width="8" height="8" transform="rotate(-90 72 88)" fill="#01448C"/>
<rect x="72" y="72" width="8" height="8" transform="rotate(-90 72 72)" fill="#01448C"/>
<rect x="72" y="56" width="8" height="8" transform="rotate(-90 72 56)" fill="#01448C"/>
<rect x="72" y="40" width="8" height="8" transform="rotate(-90 72 40)" fill="#01448C"/>
<rect x="72" y="24" width="8" height="8" transform="rotate(-90 72 24)" fill="#01448C"/>
<rect x="72" y="8" width="8" height="8" transform="rotate(-90 72 8)" fill="#01448C"/>
</svg>
