<svg width="64" height="41" viewBox="0 0 64 41" fill="none" xmlns="http://www.w3.org/2000/svg">
<rect x="-0.000244141" y="0.649902" width="4" height="4" fill="#0386D1"/>
<rect x="11.9998" y="0.649902" width="4" height="4" fill="#0386D1"/>
<rect x="23.9998" y="0.649902" width="4" height="4" fill="#0386D1"/>
<rect x="35.9998" y="0.649902" width="4" height="4" fill="#0386D1"/>
<rect x="47.9998" y="0.649902" width="4" height="4" fill="#0386D1"/>
<rect x="59.9998" y="0.649902" width="4" height="4" fill="#0386D1"/>
<rect x="-0.000244141" y="12.6499" width="4" height="4" fill="#0386D1"/>
<rect x="11.9998" y="12.6499" width="4" height="4" fill="#0386D1"/>
<rect x="23.9998" y="12.6499" width="4" height="4" fill="#0386D1"/>
<rect x="35.9998" y="12.6499" width="4" height="4" fill="#0386D1"/>
<rect x="47.9998" y="12.6499" width="4" height="4" fill="#0386D1"/>
<rect x="59.9998" y="12.6499" width="4" height="4" fill="#0386D1"/>
<rect x="-0.000244141" y="24.6499" width="4" height="4" fill="#0386D1"/>
<rect x="11.9998" y="24.6499" width="4" height="4" fill="#0386D1"/>
<rect x="23.9998" y="24.6499" width="4" height="4" fill="#0386D1"/>
<rect x="35.9998" y="24.6499" width="4" height="4" fill="#0386D1"/>
<rect x="47.9998" y="24.6499" width="4" height="4" fill="#0386D1"/>
<rect x="59.9998" y="24.6499" width="4" height="4" fill="#0386D1"/>
<rect x="-0.000244141" y="36.6499" width="4" height="4" fill="#0386D1"/>
<rect x="11.9998" y="36.6499" width="4" height="4" fill="#0386D1"/>
<rect x="23.9998" y="36.6499" width="4" height="4" fill="#0386D1"/>
<rect x="35.9998" y="36.6499" width="4" height="4" fill="#0386D1"/>
<rect x="47.9998" y="36.6499" width="4" height="4" fill="#0386D1"/>
<rect x="59.9998" y="36.6499" width="4" height="4" fill="#0386D1"/>
</svg>
